<svg width="1440" height="407" viewBox="0 0 1440 407" fill="none" xmlns="http://www.w3.org/2000/svg">
<path fill-rule="evenodd" clip-rule="evenodd" d="M304.359 258.455C210.569 331.261 107.281 378.981 0 406.096V405.064C106.852 378.024 209.725 330.517 303.172 258.109C285.728 252.989 268.782 246.445 252.727 237.955C237.045 229.662 229.442 218.785 228.071 205.905C226.706 193.07 231.542 178.347 240.49 162.356C271.104 107.647 320.668 68.9642 366.921 39.5299C400.878 17.9201 442.104 -3.60552 481.293 1.172C488.802 2.0874 493.397 5.33317 495.539 10.4038C497.66 15.4227 497.327 22.1197 495.277 29.8507C491.172 45.3265 480.086 65.3041 466.989 85.2199C440.781 125.071 406.378 164.886 403.1 168.378C371.932 201.581 339.256 231.283 305.334 257.697C350.669 270.714 399.31 274.269 444.439 277.567C449.166 277.913 453.856 278.256 458.499 278.606C489.475 280.945 510.615 284.07 529.186 286.816L529.188 286.816L529.193 286.817L529.205 286.819C535.69 287.778 541.862 288.69 548.03 289.507C571.86 292.661 595.695 294.391 637.469 291.839C645.675 291.338 664.883 289.282 685.302 285.963C705.735 282.642 727.317 278.066 740.304 272.54C789.349 251.672 860.748 227.319 912.115 215.285C946.127 207.316 980.474 204.451 1014.97 203.692C1017.51 203.636 1020.1 203.552 1022.72 203.465C1032.14 203.157 1042.02 202.833 1051.72 203.772C1064.14 204.975 1076.32 208.254 1086.93 216.319C1097.27 224.178 1101.3 236.841 1102.81 250.649C1103.85 260.221 1103.68 270.429 1103.52 280.05C1103.45 284.293 1103.38 288.423 1103.42 292.334C1103.61 311.599 1108.75 322.534 1117.18 329.091C1125.66 335.68 1137.56 337.931 1151.48 339.578C1235.21 349.484 1309.03 329.07 1388.2 294.716C1398.73 290.144 1409.77 284.803 1421.16 279.293L1421.2 279.277C1423.35 278.236 1425.51 277.19 1427.68 276.141C1431.75 274.18 1435.86 272.211 1440 270.264V271.369C1436.01 273.249 1432.05 275.148 1428.12 277.042C1426.46 277.843 1424.8 278.643 1423.15 279.44L1421.6 280.191C1410.22 285.7 1399.15 291.052 1388.6 295.633C1309.35 330.02 1235.35 350.506 1151.37 340.571C1137.46 338.926 1125.29 336.661 1116.57 329.88C1107.81 323.068 1102.61 311.781 1102.42 292.343C1102.38 288.384 1102.45 284.228 1102.52 279.973V279.955C1102.68 270.364 1102.85 260.266 1101.81 250.757C1100.32 237.037 1096.33 224.722 1086.32 217.115C1075.91 209.201 1063.93 205.96 1051.62 204.768C1041.99 203.835 1032.2 204.156 1022.8 204.464C1020.16 204.55 1017.55 204.636 1014.99 204.692C980.534 205.45 946.263 208.312 912.343 216.259C861.042 228.278 789.697 252.611 740.696 273.46C727.584 279.039 705.893 283.63 685.463 286.95C665.02 290.273 645.778 292.334 637.531 292.838C595.691 295.393 571.792 293.66 547.899 290.498C541.706 289.678 535.517 288.763 529.019 287.803C510.454 285.058 489.362 281.939 458.423 279.603C453.779 279.253 449.086 278.91 444.354 278.564L444.326 278.562C399.008 275.251 350.013 271.672 304.359 258.455ZM304.146 257.353C338.234 230.859 371.064 201.044 402.371 167.693C405.616 164.236 439.982 124.466 466.153 84.6704C479.245 64.7628 490.25 44.9013 494.31 29.5943C496.342 21.9339 496.609 15.5035 494.618 10.793C492.65 6.13431 488.424 3.04868 481.172 2.16465C442.375 -2.56512 401.427 18.7563 367.458 40.3735C321.25 69.7789 271.855 108.353 241.363 162.845C232.449 178.774 227.733 193.274 229.066 205.799C230.393 218.278 237.738 228.897 253.194 237.071C269.4 245.641 286.518 252.22 304.146 257.353Z" fill="#CFA176"/>
</svg>
