<svg width="375" height="224" viewBox="0 0 375 224" fill="none" xmlns="http://www.w3.org/2000/svg">
<path fill-rule="evenodd" clip-rule="evenodd" d="M375 145.369C345.169 146.67 315.264 146.107 285.496 143.467C283.468 143.287 281.421 143.111 279.357 142.934L279.356 142.934C259.73 141.248 238.629 139.435 218.948 132.864C233.696 119.342 247.905 104.15 261.462 87.18C262.904 85.3752 277.963 64.8966 289.436 44.3978C295.168 34.1561 300.032 23.8628 301.835 15.8754C302.735 11.8889 302.89 8.40091 301.943 5.76505C301.465 4.43688 300.706 3.32235 299.624 2.47999C298.544 1.63908 297.168 1.0896 295.485 0.84859C286.826 -0.391732 277.968 1.78683 269.436 5.64516C260.903 9.50408 252.661 15.0603 245.221 20.6234C224.968 35.7676 203.247 55.6841 189.829 83.8588C185.906 92.0952 183.774 99.7036 184.376 106.353C184.981 113.04 188.347 118.7 195.281 123.009C202.207 127.312 209.51 130.645 217.026 133.264C151.916 192.421 76.3693 219.129 0 222.595V223.595C76.7536 220.121 152.7 193.236 218.105 133.635C238.071 140.395 259.471 142.231 279.229 143.927C281.308 144.105 283.369 144.282 285.408 144.463C315.207 147.106 345.142 147.671 375 146.37V145.369ZM217.866 132.498C232.723 118.917 247.033 103.639 260.681 86.5558C262.093 84.7881 277.121 64.3546 288.564 43.9094C294.289 33.6791 299.09 23.4924 300.859 15.6553C301.745 11.7295 301.852 8.46913 301.002 6.10341C300.58 4.93079 299.924 3.98123 299.01 3.26907C298.093 2.55546 296.89 2.05999 295.343 1.83849C286.943 0.635105 278.284 2.74128 269.848 6.55632C261.414 10.3708 253.239 15.8765 245.82 21.4243C225.621 36.5278 204.048 56.3269 190.732 84.2887C186.84 92.4614 184.793 99.8758 185.372 106.263C185.947 112.613 189.12 118.003 195.809 122.159C202.826 126.519 210.235 129.875 217.866 132.498Z" fill="#C99E76" fill-opacity="0.95"/>
</svg>
